<svg height="512pt" viewBox="0 0 512 512" width="512pt" xmlns="http://www.w3.org/2000/svg"><path d="m511.992188 255.996094c0 141.382812-114.613282 255.996094-255.996094 255.996094-141.382813 0-255.996094-114.613282-255.996094-255.996094 0-141.382813 114.613281-255.996094 255.996094-255.996094 141.382812 0 255.996094 114.613281 255.996094 255.996094zm0 0" fill="#a0d7fc"/><path d="m485.359375 369.792969c-24.304687 48.898437-63.789063 88.9375-112.292969 113.921875-7.292968 3.761718-14.785156 7.179687-22.464844 10.230468-4.253906 1.691407-8.570312 3.28125-12.9375 4.753907-2.777343.929687-5.589843 1.828125-8.410156 2.664062-23.207031 6.917969-47.792968 10.636719-73.257812 10.636719-45.546875 0-88.300782-11.890625-125.355469-32.746094-1.273437-.699218-2.546875-1.433594-3.800781-2.183594-.597656-.34375-1.191406-.699218-1.777344-1.054687-.667969-.386719-1.335938-.796875-1.996094-1.203125-.207031-.125-.417968-.25-.625-.386719-40.960937-25.097656-74.3125-61.398437-95.808594-104.632812zm0 0" fill="#c9cf50"/><path d="m170.734375 303.933594h-21.425781c-4.828125 0-8.738282-3.746094-8.738282-8.363282 0-4.617187 3.910157-8.363281 8.738282-8.363281h21.425781c6.382813 0 11.558594-4.949219 11.558594-11.058593 0-6.109376-5.175781-11.058594-11.558594-11.058594h-107.695313c-6.382812 0-11.558593 4.949218-11.558593 11.058594 0 6.109374 5.175781 11.058593 11.558593 11.058593h30.167969c4.824219 0 8.738281 3.746094 8.738281 8.363281 0 4.617188-3.914062 8.363282-8.738281 8.363282h-63.996093c-6.386719 0-11.558594 4.953125-11.558594 11.058594 0 6.109374 5.171875 11.0625 11.558594 11.0625h141.523437c6.382813 0 11.558594-4.953126 11.558594-11.0625 0-6.105469-5.175781-11.058594-11.558594-11.058594zm0 0" fill="#bde5ff"/><path d="m480.828125 205.152344h-80.035156c-4.21875-.867188-7.390625-4.597656-7.390625-9.074219 0-4.6875 3.488281-8.554687 8.007812-9.167969h7.007813c6.453125 0 11.6875-5.234375 11.6875-11.6875 0-6.457031-5.234375-11.691406-11.6875-11.691406-4.324219 0-8.648438 0-12.972657 0-5.117187 0-9.265624-4.148438-9.265624-9.261719 0-4.34375 2.992187-7.976562 7.023437-8.980469h47.144531c6.453125 0 11.6875-5.234374 11.6875-11.6875 0-6.457031-5.234375-11.691406-11.6875-11.691406h-143.113281c-6.453125 0-11.6875 5.234375-11.6875 11.691406 0 6.453126 5.234375 11.6875 11.6875 11.6875h41.726563c4.03125 1.003907 7.023437 4.636719 7.023437 8.980469 0 5.113281-4.148437 9.261719-9.265625 9.261719h-71.410156c-6.457032 0-11.691406 5.234375-11.691406 11.691406 0 6.453125 5.234374 11.6875 11.691406 11.6875h79.890625c4.519531.613282 8.007812 4.480469 8.007812 9.167969 0 4.476563-3.171875 8.210937-7.390625 9.074219h-8.097656c-6.457031 0-11.691406 5.234375-11.691406 11.691406 0 6.453125 5.234375 11.6875 11.691406 11.6875h143.109375c6.457031 0 11.6875-5.234375 11.6875-11.6875 0-6.457031-5.234375-11.691406-11.6875-11.691406zm0 0" fill="#bde5ff"/><path d="m210.566406 310.417969h68.007813v45.589843h-68.007813zm0 0" fill="#e8866a"/><path d="m261.679688 310.421875h16.898437v45.585937h-16.898437zm0 0" fill="#d1795f"/><path d="m251.5 327.226562h-11.1875c-43.613281 0-78.964844-35.355468-78.964844-78.964843v-108.496094h169.121094v108.496094c0 43.609375-35.355469 78.964843-78.96875 78.964843zm0 0" fill="#ff9c7b"/><path d="m330.464844 139.769531v108.492188c0 1.355469-.03125 2.714843-.101563 4.0625-2.113281 41.722656-36.605469 74.898437-78.859375 74.898437h-8.964844c-1.085937 0-2.183593-.019531-3.261718-.074218 41.023437-1.753907 73.75-36.402344 73.75-78.886719v-108.492188zm0 0" fill="#e8866a"/><path d="m301.371094 70.742188c-2.339844-.015626-4.53125.085937-6.421875 1.671874-1.609375 1.351563-2.558594 3.378907-2.558594 5.480469v2.054688c-3.605469-14.078125-16.378906-24.488281-31.585937-24.488281h-31.402344c-30.144532 0-55.191406 21.761718-60.324219 50.429687h-18.808594c-2.816406 0-5.09375 2.28125-5.09375 5.09375 0 13.363281 8.949219 24.628906 21.179688 28.144531h-26.785157c-4.289062 0-7.769531 3.480469-7.769531 7.769532 0 23.5625 19.101563 42.664062 42.664063 42.664062h70.042968c22.324219 0 41.246094-14.511719 47.882813-34.609375v2.050781c0 20.019532 16.230469 36.25 36.25 36.25h1.828125s0-93.390625 0-93.410156c0-5.074219-1.4375-10.386719-4.011719-14.75-2.550781-4.320312-6.105469-7.902344-10.40625-10.480469-4.414062-2.648437-9.535156-3.835937-14.679687-3.871093zm0 0" fill="#26374e"/><path d="m330.464844 99.84375v93.414062h-1.816406c-5.527344 0-10.773438-1.242187-15.453126-3.457031v-89.957031c0-5.078125-1.445312-10.386719-4.015624-14.753906-2.546876-4.3125-6.109376-7.898438-10.40625-10.480469-1.304688-.773437-2.664063-1.429687-4.074219-1.960937.082031-.085938.167969-.160157.25-.230469 1.890625-1.589844 4.085937-1.695313 6.417969-1.671875 5.148437.03125 10.269531 1.222656 14.679687 3.863281 4.304687 2.582031 7.855469 6.167969 10.40625 10.480469 2.582031 4.367187 4.011719 9.675781 4.011719 14.753906zm0 0" fill="#1b283b"/><path d="m303.828125 339.542969-56.582031 50.296875-56.574219-50.296875zm0 0" fill="#d4d7d1"/><g fill="#c9cf50"><path d="m134.484375 481.371094c1.035156.558594 2.074219 1.113281 3.117187 1.65625-1.042968-.546875-2.082031-1.097656-3.117187-1.65625zm0 0"/><path d="m137.601562 483.027344c.042969.023437.089844.046875.132813.070312-.042969-.023437-.089844-.046875-.132813-.070312zm0 0"/><path d="m130.640625 479.253906c1.273437.71875 2.558594 1.417969 3.84375 2.117188-1.285156-.695313-2.570313-1.402344-3.84375-2.117188zm0 0"/></g><path d="m373.066406 396.164062v87.550782c-7.292968 3.761718-14.785156 7.179687-22.464844 10.230468-4.253906 1.691407-8.570312 3.28125-12.9375 4.753907-2.777343.929687-5.589843 1.828125-8.410156 2.664062-23.207031 6.917969-47.792968 10.636719-73.257812 10.636719-45.546875 0-88.300782-11.890625-125.355469-32.746094-1.273437-.699218-2.546875-1.433594-3.800781-2.183594-.597656-.34375-1.191406-.699218-1.777344-1.054687-.667969-.386719-1.335938-.796875-1.996094-1.203125l-.625-.375v-78.273438c0-9.519531 2.347656-18.496093 6.519532-26.371093.175781-.355469.363281-.710938.5625-1.058594 7.941406-14.324219 21.910156-24.835937 38.484374-28.105469l.113282.09375 31.523437 28.011719 1.191407 1.058594 41.148437 36.570312c1.503906 1.335938 3.386719 2.003907 5.265625 2.003907 1.882812 0 3.761719-.667969 5.265625-2.003907l41.140625-36.570312 1.1875-1.058594 30.148438-26.789063c.519531-.460937.960937-.984374 1.335937-1.535156 17.082031 2.996094 31.523437 13.664063 39.664063 28.324219.1875.347656.386718.703125.5625 1.058594 4.160156 7.875 6.511718 16.851562 6.511718 26.371093zm0 0" fill="#014c67"/><path d="m373.066406 396.164062v87.550782c-7.292968 3.761718-14.785156 7.179687-22.464844 10.230468v-95.796874c0-10.175782-2.371093-19.800782-6.582031-28.355469-.460937-.953125-.953125-1.894531-1.464843-2.8125-4.992188-8.996094-12.089844-16.644531-20.605469-22.339844l3.042969-2.695313c.519531-.460937.960937-.984374 1.335937-1.535156 17.082031 2.996094 31.523437 13.664063 39.664063 28.324219.1875.347656.386718.703125.5625 1.058594 4.160156 7.875 6.511718 16.851562 6.511718 26.371093zm0 0" fill="#01445c"/><path d="m168.097656 228.085938h-10.953125c-7.457031 0-13.5-6.042969-13.5-13.5v-7.640626c0-7.457031 6.042969-13.5 13.5-13.5h10.953125zm0 0" fill="#ff9c7b"/><path d="m161.734375 220.699219h-2.621094c-3.375 0-6.109375-2.738281-6.109375-6.109375v-7.648438c0-3.375 2.734375-6.113281 6.109375-6.113281h2.621094zm0 0" fill="#e8866a"/><path d="m321.679688 193.445312h10.953124c7.457032 0 13.5 6.042969 13.5 13.5v7.640626c0 7.453124-6.042968 13.496093-13.5 13.496093h-10.953124zm0 0" fill="#e8866a"/><path d="m329.769531 200.832031h2.621094c3.371094 0 6.109375 2.734375 6.109375 6.109375v7.648438c0 3.375-2.738281 6.109375-6.109375 6.109375h-2.621094zm0 0" fill="#a88063"/><path d="m303.660156 202.675781h-40.242187c0-4.359375 3.535156-7.894531 7.894531-7.894531h24.453125c4.359375 0 7.894531 3.535156 7.894531 7.894531zm0 0" fill="#26374e"/><path d="m227.761719 202.421875h-40.246094c0-4.21875 3.421875-7.640625 7.644531-7.640625h24.960938c4.21875 0 7.640625 3.421875 7.640625 7.640625zm0 0" fill="#26374e"/><path d="m251.191406 301.246094h-8.148437c-18.007813 0-32.601563-14.59375-32.601563-32.601563 0-.84375.683594-1.527343 1.527344-1.527343h70.296875c.847656 0 1.53125.683593 1.53125 1.527343-.003906 18.007813-14.597656 32.601563-32.605469 32.601563zm0 0" fill="#d4d7d1"/><path d="m253.675781 253.746094h-11.460937c-3.273438 0-5.921875-2.652344-5.921875-5.921875s2.648437-5.921875 5.921875-5.921875h11.460937c3.269531 0 5.921875 2.652344 5.921875 5.921875s-2.652344 5.921875-5.921875 5.921875zm0 0" fill="#e8866a"/><path d="m172.617188 416.546875v81.617187c-2.824219-.972656-5.621094-1.996093-8.402344-3.0625v-78.554687c0-2.203125 1.785156-3.992187 3.992187-3.992187h.417969c2.203125 0 3.992188 1.789062 3.992188 3.992187zm0 0" fill="#01445c"/><path d="m337.664062 416.550781v82.148438c-2.777343.929687-5.589843 1.828125-8.410156 2.664062v-84.8125c0-2.207031 1.785156-3.992187 3.992188-3.992187h.425781c2.207031 0 3.992187 1.785156 3.992187 3.992187zm0 0" fill="#01445c"/><path d="m287.144531 406.367188h14.472657c2.824218 0 5.117187 2.292968 5.117187 5.117187v32.308594c0 1.449219-.617187 2.832031-1.695313 3.804687l-7.664062 6.894532c-2.023438 1.820312-5.117188 1.738281-7.042969-.1875l-6.773437-6.773438c-.960938-.960938-1.5-2.257812-1.5-3.613281l-.035156-32.425781c0-2.832032 2.289062-5.125 5.121093-5.125zm0 0" fill="#c2a548"/><path d="m305.570312 499.460938-13.371093-11.882813-13.371094 11.882813v-34.664063h26.742187zm0 0" fill="#b89d45"/><path d="m292.199219 464.796875v22.773437l-13.371094 11.886719v-34.660156zm0 0" fill="#dabe5d"/><path d="m328.101562 437.804688c0 19.832031-16.074218 35.90625-35.902343 35.90625s-35.90625-16.074219-35.90625-35.90625c0-19.828126 16.078125-35.902344 35.90625-35.902344s35.902343 16.074218 35.902343 35.902344zm0 0" fill="#c2a548"/><path d="m328.101562 437.804688c0 19.832031-16.070312 35.90625-35.902343 35.90625-1.511719 0-2.996094-.09375-4.457031-.277344 17.726562-2.191406 31.449218-17.308594 31.449218-35.628906 0-18.320313-13.722656-33.433594-31.449218-35.625 1.460937-.183594 2.945312-.277344 4.457031-.277344 19.832031 0 35.902343 16.074218 35.902343 35.902344zm0 0" fill="#aa9240"/><path d="m319.1875 437.804688c0 14.90625-12.082031 26.992187-26.988281 26.992187s-26.992188-12.085937-26.992188-26.992187 12.085938-26.988282 26.992188-26.988282 26.988281 12.082032 26.988281 26.988282zm0 0" fill="#d9c170"/><path d="m315.226562 437.804688c0 12.71875-10.308593 23.03125-23.027343 23.03125s-23.027344-10.3125-23.027344-23.03125 10.308594-23.027344 23.027344-23.027344 23.027343 10.308594 23.027343 23.027344zm0 0" fill="#c2a548"/><path d="m315.226562 437.804688c0 12.71875-10.3125 23.03125-23.027343 23.03125-.984375 0-1.960938-.058594-2.914063-.179688 11.34375-1.429688 20.113282-11.117188 20.113282-22.851562 0-11.730469-8.769532-21.414063-20.113282-22.84375.953125-.121094 1.925782-.183594 2.914063-.183594 12.714843 0 23.027343 10.3125 23.027343 23.027344zm0 0" fill="#aa9240"/><path d="m293.890625 422.351562 3.777344 7.652344c.296875.605469.875 1.019532 1.539062 1.117188l8.445313 1.226562c1.675781.246094 2.34375 2.304688 1.132812 3.484375l-6.113281 5.957031c-.480469.46875-.699219 1.144532-.585937 1.808594l1.441406 8.410156c.285156 1.667969-1.464844 2.941407-2.960938 2.152344l-7.554687-3.96875c-.59375-.3125-1.304688-.3125-1.902344 0l-7.554687 3.96875c-1.496094.789063-3.246094-.484375-2.960938-2.152344l1.441406-8.410156c.113282-.664062-.105468-1.339844-.585937-1.808594l-6.113281-5.957031c-1.210938-1.179687-.542969-3.238281 1.132812-3.484375l8.445312-1.226562c.664063-.09375 1.242188-.511719 1.539063-1.117188l3.777344-7.652344c.75-1.519531 2.910156-1.519531 3.660156 0zm0 0" fill="#dabe5d"/><path d="m208.066406 237.921875c-4.328125 0-7.839844-3.507813-7.839844-7.835937v-10.605469c0-4.328125 3.511719-7.835938 7.839844-7.835938s7.835938 3.507813 7.835938 7.835938v10.605469c0 4.328124-3.507813 7.835937-7.835938 7.835937zm0 0" fill="#26374e"/><path d="m208.882812 219.480469c0 2.039062-1.65625 3.695312-3.695312 3.695312s-3.691406-1.65625-3.691406-3.695312c0-2.039063 1.652344-3.691407 3.691406-3.691407s3.695312 1.652344 3.695312 3.691407zm0 0" fill="#758080"/><path d="m284.1875 237.921875c-4.328125 0-7.835938-3.507813-7.835938-7.835937v-10.605469c0-4.328125 3.507813-7.835938 7.835938-7.835938s7.835938 3.507813 7.835938 7.835938v10.605469c0 4.328124-3.507813 7.835937-7.835938 7.835937zm0 0" fill="#26374e"/><path d="m285.003906 219.480469c0 2.039062-1.652344 3.695312-3.691406 3.695312-2.042969 0-3.695312-1.65625-3.695312-3.695312 0-2.039063 1.652343-3.691407 3.695312-3.691407 2.039062 0 3.691406 1.652344 3.691406 3.691407zm0 0" fill="#758080"/><path d="m275.578125 367.949219-28.308594 25.160156-26.957031-23.96875 26.507812-26.332031h.460938zm0 0" fill="#c5c8c2"/><path d="m326.324219 340.40625c-.367188.558594-.8125 1.078125-1.335938 1.539062l-72.472656 64.417969c-1.5 1.335938-3.382813 2.007813-5.269531 2.007813-1.878906 0-3.757813-.671875-5.261719-2.007813l-73.96875-65.738281c3.574219-.710938 7.265625-1.078125 11.039063-1.078125h11.617187l56.574219 50.292969 56.582031-50.292969h12.621094c3.371093-.003906 6.667969.292969 9.875.859375zm0 0" fill="#aa873e"/></svg>