<?xml version="1.0" encoding="utf-8"?>
<!-- Generator: Adobe Illustrator 16.0.0, SVG Export Plug-In . SVG Version: 6.00 Build 0)  -->
<!DOCTYPE svg PUBLIC "-//W3C//DTD SVG 1.1//EN" "http://www.w3.org/Graphics/SVG/1.1/DTD/svg11.dtd">
<svg version="1.1" id="Layer_1" xmlns="http://www.w3.org/2000/svg" xmlns:xlink="http://www.w3.org/1999/xlink" x="0px" y="0px"
	 width="582.007px" height="526.772px" viewBox="0 0 582.007 526.772" enable-background="new 0 0 582.007 526.772"
	 xml:space="preserve">
<g>
	<g>
		<g>
			<path fill-rule="evenodd" clip-rule="evenodd" fill="#00673F" d="M400.246,295.315c1.551,1.564,14.854,14.375,20.779,12.688
				c5.924-1.688,2.931-8.193-3.827-15.198c-6.758-7.006-13.945-8.842-15.659-8.538C392.373,285.89,395.892,290.924,400.246,295.315z
				"/>
			<path fill-rule="evenodd" clip-rule="evenodd" fill="#3C1D0F" d="M423.266,254.464c-1.489-1.597-19.139-12.951-19.139-12.951
				s3.794-1.309,3.102-1.174c-7.265,1.405-25.685,7.334-24.98,16.486c0.107,1.385,16.134,29.829,20.903,30.525
				c4.771,0.696,24.809-8.903,26.031-10.648C430.406,274.958,423.266,254.464,423.266,254.464z"/>
			<path fill-rule="evenodd" clip-rule="evenodd" fill="#D37232" d="M400.012,247.173c4.471-15.868,32.435,5.112,32.886,4.736
				c0.639-0.532-0.798-1.81-1.809-2.607c-10.764-8.496-19.997-14.328-33.204-8.78c-7.982,3.353-12.559,6.971-12.346,8.621
				c0.212,1.649,0.34,3.254,0.871,3.201C386.943,252.29,400.012,247.173,400.012,247.173z"/>
			<path fill-rule="evenodd" clip-rule="evenodd" fill="#E2CAB7" d="M421.956,303.378c-1.626-5.581-10.424-12.914-14.033-15.227
				c-2.298-1.472-5.264-2.917-7.117-3.774c0.325-0.046,0.576-0.084,0.733-0.111c1.714-0.304,8.901,1.532,15.659,8.538
				c6.294,6.523,9.321,12.614,4.924,14.783C422.464,306.656,422.523,305.328,421.956,303.378z"/>
			<path fill-rule="evenodd" clip-rule="evenodd" fill="#F5841F" d="M406.602,291.035c0.346-0.256,0.418-0.744,0.161-1.089
				c-0.256-0.346-0.745-0.417-1.089-0.16c-0.08,0.058-1.118,1.366-1.967,2.722c-0.462,0.738-0.893,1.517-1.136,2.167
				c-0.663,1.785-0.731,2.994-0.731,2.998c-0.021,0.427,0.309,0.791,0.736,0.812c0.428,0.021,0.792-0.308,0.813-0.736
				c0-0.002,0.056-0.968,0.637-2.532c0.198-0.533,0.581-1.217,0.998-1.883C405.781,292.124,406.561,291.066,406.602,291.035z"/>
			<path fill-rule="evenodd" clip-rule="evenodd" fill="#F5841F" d="M404.315,299.527c-0.109,0.415,0.138,0.841,0.552,0.95
				c0.415,0.11,0.841-0.136,0.95-0.551c0.378-1.421,0.888-2.633,1.536-3.759c0.655-1.141,1.461-2.211,2.42-3.332
				c0.279-0.324,0.242-0.814-0.082-1.094c-0.325-0.279-0.815-0.242-1.095,0.082c-1.015,1.187-1.874,2.329-2.586,3.567
				C405.29,296.644,404.728,297.978,404.315,299.527z"/>
			<path fill-rule="evenodd" clip-rule="evenodd" fill="#F5841F" d="M407.171,301.428c-0.037,0.427,0.279,0.805,0.708,0.843
				c0.427,0.037,0.804-0.278,0.842-0.707c0.047-0.541,0.683-1.9,1.43-3.223c0.73-1.292,1.533-2.49,1.96-2.788
				c0.351-0.247,0.437-0.73,0.19-1.081c-0.247-0.351-0.73-0.437-1.081-0.189c-0.624,0.436-1.599,1.834-2.421,3.29
				C407.958,299.059,407.238,300.666,407.171,301.428z"/>
			<path fill-rule="evenodd" clip-rule="evenodd" fill="#651D0D" d="M372.63,184.177c-14.198-15.313-20.891-44.635-2.343-60.772
				c11.924-10.375,19.716-11.375,27.55-4.365c43.437,5.302,24.683,43.826,38.12,54.946c3.658,3.027-13.187,12.716-18.613,14.845
				c-5.428,2.128-12.854,1.593-22.563-1.703C385.072,183.833,379.029,182.352,372.63,184.177z"/>
			<path fill-rule="evenodd" clip-rule="evenodd" fill="#341B0F" d="M364.873,318.649c0.299-1.651,0.882-4.949,9.802-15.671
				c8.921-10.722,24.655-18.312,24.655-18.312l3.686,4.108c0,0-23.061,42.221-27.13,43.92
				C371.815,334.394,364.873,318.649,364.873,318.649z"/>
			<path fill-rule="evenodd" clip-rule="evenodd" fill="#00673F" d="M434.485,290.433c1.551,1.563,14.855,14.374,20.779,12.687
				c5.924-1.687,2.933-8.193-3.826-15.198s-13.945-8.843-15.659-8.539C426.612,281.008,430.132,286.041,434.485,290.433z"/>
			<path fill-rule="evenodd" clip-rule="evenodd" fill="#E2CAB7" d="M456.195,298.497c-1.626-5.582-10.423-12.914-14.033-15.227
				c-2.298-1.472-5.263-2.918-7.116-3.775c0.324-0.045,0.575-0.083,0.733-0.112c1.714-0.304,8.9,1.534,15.659,8.539
				c6.294,6.523,9.321,12.614,4.924,14.784C456.704,301.773,456.764,300.446,456.195,298.497z"/>
			<path fill-rule="evenodd" clip-rule="evenodd" fill="#F5841F" d="M440.841,286.154c0.347-0.258,0.418-0.745,0.161-1.091
				c-0.256-0.345-0.744-0.416-1.09-0.16c-0.078,0.059-1.117,1.366-1.966,2.723c-0.461,0.736-0.893,1.515-1.135,2.167
				c-0.663,1.784-0.732,2.993-0.732,2.997c-0.021,0.427,0.31,0.792,0.736,0.813c0.429,0.021,0.793-0.309,0.813-0.737
				c0-0.002,0.056-0.967,0.638-2.532c0.198-0.533,0.581-1.218,0.997-1.883C440.021,287.242,440.8,286.184,440.841,286.154z"/>
			<path fill-rule="evenodd" clip-rule="evenodd" fill="#F5841F" d="M438.556,294.644c-0.109,0.416,0.137,0.841,0.552,0.951
				c0.414,0.111,0.841-0.137,0.95-0.552c0.377-1.42,0.886-2.632,1.534-3.758c0.656-1.141,1.462-2.211,2.422-3.332
				c0.279-0.325,0.242-0.814-0.083-1.095c-0.325-0.279-0.814-0.242-1.095,0.082c-1.015,1.187-1.873,2.329-2.586,3.568
				C439.529,291.76,438.967,293.095,438.556,294.644z"/>
			<path fill-rule="evenodd" clip-rule="evenodd" fill="#F5841F" d="M441.412,296.545c-0.038,0.427,0.277,0.805,0.705,0.843
				s0.807-0.278,0.843-0.707c0.048-0.54,0.683-1.9,1.43-3.223c0.731-1.292,1.533-2.489,1.961-2.788
				c0.351-0.246,0.436-0.73,0.189-1.081s-0.73-0.435-1.081-0.189c-0.624,0.437-1.599,1.835-2.421,3.291
				C442.198,294.176,441.479,295.783,441.412,296.545z"/>
			<path fill-rule="evenodd" clip-rule="evenodd" fill="#442813" d="M396.366,317.961c0.298-1.651,2.627-7.102,11.546-17.824
				c8.921-10.723,23.667-18.778,23.667-18.778c3.231-0.571,5.526,5.81,2.906,9.074c-6.931,8.639-21.956,37.999-25.362,39.421
				C405.055,331.552,396.366,317.961,396.366,317.961z"/>
			<path fill-rule="evenodd" clip-rule="evenodd" fill="#442813" d="M353.911,255.703c0,0-1.718,9.788-0.604,20.207
				c1.115,10.42,6.489,43.668,16.264,54.374s8.146-5.585,8.611-22.11c0.465-16.524-5.236-43.871-5.236-43.871L353.911,255.703z"/>
			<path fill-rule="evenodd" clip-rule="evenodd" fill="#442813" d="M368.292,255.34c0.232,4.655,10.706,45.85,23.041,62.142
				s20.481,18.852,20.016,0s-15.143-58.958-15.143-58.958L368.292,255.34z"/>
			<path fill-rule="evenodd" clip-rule="evenodd" fill="#FBB98C" d="M411.813,202.495l9.289,18.253l16.99-24.331
				c-0.028-0.237-0.032-0.504-0.016-0.795c-0.468-2.683-1.01-7.311-0.957-7.778c0.07-0.642,2.055-7.792,2.659-6.801
				c1.278,2.089-0.055,4.658,0.202,7.624c0.441-1.129,0.868-2.105,1.17-2.725c1.102-2.259,5.245-11.649,6.526-10.885
				c1.282,0.764-3.187,11.43-2.868,11.534c0.317,0.104,9.038-12.743,10.904-11.611c1.867,1.132-8.116,13.286-7.668,13.58
				c0.45,0.294,8.788-10.06,10.185-8.693c1.396,1.367-7.976,11.082-7.101,11.069c0.875-0.011,8.473-7.102,9.52-5.611
				c1.046,1.491-8.342,8.466-8.342,8.466s-3.337,4.105-5.887,5.708c-2.509,1.578-2.439,1.253-2.437,1.242
				c0,0-17.562,32.672-22.03,34.162c-4.47,1.49-19.689-19.263-19.689-19.263L411.813,202.495L411.813,202.495z M443.982,200.74
				L443.982,200.74L443.982,200.74L443.982,200.74z"/>
			<path fill-rule="evenodd" clip-rule="evenodd" fill="#FBB98C" d="M350.859,188.97l-18.277,9.241l0.674-30.106l-7.317,0.446
				c0,0-5.131,36.736-2.405,40.579c2.728,3.842,27.266-3.914,27.266-3.914L350.859,188.97z"/>
			<path fill-rule="evenodd" clip-rule="evenodd" fill="#FAAD7B" d="M328.84,168.375l-2.901,0.177c0,0-5.131,36.736-2.404,40.579
				c2.727,3.843,27.265-3.913,27.265-3.913l0.013-3.118c-3.294,1.444-6.521,2.618-7.523,2.235c-2.235-0.851-5.157-6.973-5.157-6.973
				s1.432,6.866-1.335,8.676c-2.767,1.809-9.579,1.703-10.323,0.213c-0.745-1.49,3.733-36.392,2.726-37.294
				C329.088,168.858,328.968,168.657,328.84,168.375z"/>
			<path fill-rule="evenodd" clip-rule="evenodd" fill="#04B18F" d="M418.172,213.447l-10.073,11.068l-11.464-12.363
				c-0.154-0.167-15.687,12.141-10.402,32.962c1.008,3.97,6.951,7.318,9.536,12.192c5.487,10.346-36.068,17.865-42.461,18.604
				c-1.281-2.332-2.65-14.83,0.753-21.631c8.972-17.924-2.584-37.918-1.627-46.52c0,0-12.265,2.637-12.049,1.131
				c0.215-1.505-3.374-13.571-2.082-13.571c0.885,0,18.77-11.099,22.457-11.314c3.975-0.231,8.458-0.448,11.87,0.171
				c8.073,1.466,13.773,3.669,20.981,4.045c2.495,0.641,7.256,1.951,10.193,4.511C410.01,198.141,414.728,207.33,418.172,213.447z"
				/>
			<path fill-rule="evenodd" clip-rule="evenodd" fill="#F9A974" d="M372.63,184.177c0.717,0.121,2.109,0.137,2.798,0.265
				c4.313,0.804,7.516,1.844,12.924,2.66c1.76,0.266,3.465,0.993,5.26,1.121c0.105,0.412,0.16,0.834,0.16,1.266
				c0,4.307-5.464,7.798-12.206,7.798c-6.741,0-12.207-3.491-12.207-7.798C369.358,187.436,370.601,185.57,372.63,184.177z"/>
			<path fill-rule="evenodd" clip-rule="evenodd" fill="#F9A974" d="M390.869,176.528c-0.538,1.721-3.012,14.52-3.012,14.52
				s-6.238,2.796-9.895,0.538c-3.657-2.259-3.979-3.765-3.979-3.765l5.378-12.583L390.869,176.528z"/>
			<path fill-rule="evenodd" clip-rule="evenodd" fill="#FBB98C" d="M395.798,122.702c-14.567-3.139-25.879,8.718-29.466,25.367
				c-3.586,16.648,1.91,31.784,16.478,34.922s26.464-8.25,30.051-24.898C416.446,141.445,410.365,125.84,395.798,122.702z"/>
			<path fill-rule="evenodd" clip-rule="evenodd" fill="#4A160F" d="M399.506,150.935c-1.351,0-2.731,1.82-3.087,4.067
				c-0.354,2.246,0.453,4.067,1.803,4.067c1.351,0,2.732-1.821,3.087-4.067C401.663,152.755,400.856,150.935,399.506,150.935z"/>
			<path fill-rule="evenodd" clip-rule="evenodd" fill="#4A160F" d="M376.915,143.965c-1.351,0-2.732,1.821-3.087,4.067
				s0.453,4.067,1.804,4.067c1.35,0,2.731-1.821,3.087-4.067C379.072,145.786,378.265,143.965,376.915,143.965z"/>
			<path fill-rule="evenodd" clip-rule="evenodd" fill="#F89A63" d="M388.486,153.647c0,0.656-6.647,4.842-6.647,4.842
				c-1.2,1.964,4.943,5.892,6.483,4.021c-2.168-0.197-4.411-1.647-5.21-3.713C384.416,157.984,388.611,155.383,388.486,153.647z"/>
			<path fill-rule="evenodd" clip-rule="evenodd" fill="#FBB98C" d="M414.281,155.06c-2.705,0-5.396,2.901-6.008,6.479
				c-0.614,3.579,1.084,6.479,3.788,6.479c2.706,0,5.397-2.901,6.01-6.479C418.685,157.96,416.987,155.06,414.281,155.06z"/>
			<path fill-rule="evenodd" clip-rule="evenodd" fill="#FBB98C" d="M365.038,142.227c-2.706,0-5.071,2.9-5.282,6.479
				s1.811,6.479,4.517,6.479s5.069-2.901,5.281-6.479C369.765,145.127,367.743,142.227,365.038,142.227z"/>
			<path fill-rule="evenodd" clip-rule="evenodd" fill="#651D0D" d="M396.319,148.551c3.785-1.602,9.267-0.385,9.962,4.315
				c0.346,2.344,1.219,1.225,1.153-0.257c-0.241-5.436-8.31-8.438-11.386-5.954C395.367,147.206,395.913,148.553,396.319,148.551z"
				/>
			<path fill-rule="evenodd" clip-rule="evenodd" fill="#F39259" d="M413.77,157.294c3.611,0,3.501,6.526-0.498,8.259
				c-2.137,0.925-2.456-0.962-2.065-1.566c0.392-0.606,1.389-0.321,2.065-1.638c0.676-1.317-0.409-0.957-0.57-2.42
				C412.54,158.466,413.77,157.294,413.77,157.294z"/>
			<path fill-rule="evenodd" clip-rule="evenodd" fill="#F39259" d="M366.192,144.401c-3.051-1.931-6.447,3.644-3.995,7.246
				c1.31,1.924,2.59,0.5,2.583-0.22c-0.007-0.721-1.002-1.014-0.869-2.488c0.132-1.475,0.857-0.591,1.775-1.741
				S366.192,144.401,366.192,144.401z"/>
			<path fill-rule="evenodd" clip-rule="evenodd" fill="#FAAD79" d="M389.928,180.68c8.384-0.595,15.471-5.947,20.006-14.038
				c0.037,0.036,0.074,0.071,0.112,0.105c-4.271,9.489-11.706,15.94-20.684,16.691c-2.106,0.176-4.298,0.038-6.553-0.448
				c-2.147-0.462-4.098-1.186-5.85-2.135c-8.455-4.583-12.324-14.446-11.606-25.827c0.067-0.019,0.135-0.041,0.201-0.063
				c0.018,10.445,4.178,19.283,12.476,23.387c1.65,0.816,3.463,1.445,5.44,1.862C385.69,180.682,387.849,180.827,389.928,180.68z"/>
			<path fill-rule="evenodd" clip-rule="evenodd" fill="#88181A" d="M377.229,163.545c-0.236,0.437-0.439,0.898-0.608,1.383
				c-1.638,4.727,0.765,9.828,5.366,11.392s9.659-1,11.298-5.728c0.168-0.484,0.292-0.972,0.377-1.461L377.229,163.545z"/>
			<path fill-rule="evenodd" clip-rule="evenodd" fill="#FFFFFF" d="M392.105,168.603l-0.531,1.48
				c-0.213,0.593-0.872,0.904-1.467,0.692l-11.554-4.146c-0.594-0.212-0.905-0.872-0.692-1.465l0.449-1.25L392.105,168.603z"/>
			<path fill-rule="evenodd" clip-rule="evenodd" fill="#04B18F" d="M383.698,199.812c-3.75,0-7.14,1.566-9.567,4.089
				c-2.443-2.673-5.934-4.346-9.81-4.346c-7.387,0-13.374,6.075-13.374,13.569c0,7.494,5.987,13.569,13.374,13.569
				c3.751,0,7.14-1.566,9.568-4.088c2.443,2.672,5.934,4.346,9.809,4.346c7.389,0,13.376-6.075,13.376-13.569
				S391.087,199.812,383.698,199.812z"/>
			<path fill-rule="evenodd" clip-rule="evenodd" fill="#651D0D" d="M391.59,121.356c0.81,12.962,11.306,29.391,25.329,32.178
				c11.044,2.195-5.481-23.446-8.089-25.898C402.24,121.438,391.59,121.356,391.59,121.356z"/>
			<path fill-rule="evenodd" clip-rule="evenodd" fill="#651D0D" d="M397.583,122.85c-2.54,2.86-3.286,7.33-14.778,10.097
				c-11.495,2.767-17.242,7.557-17.242,7.557s0.513-9.593,10.643-15.964C386.335,118.167,397.583,122.85,397.583,122.85z"/>
			<path fill-rule="evenodd" clip-rule="evenodd" fill="#651D0D" d="M373.754,132.916c-0.629,0.63-4.632,5.354-6.026,10.076
				c-1.396,4.723-2.159,11.919-2.25,11.425c-0.089-0.495-1.169-9.266,0.405-13.584c1.574-4.317,2.564-6.207,2.564-6.207
				L373.754,132.916z"/>
			<path fill-rule="evenodd" clip-rule="evenodd" fill="#651D0D" d="M411.426,142.655c0.203,0.867,1.113,6.991-0.192,11.739
				c-1.308,4.748-4.454,11.265-4.116,10.893c0.337-0.374,5.881-7.255,6.82-11.754c0.94-4.499,1.096-6.626,1.096-6.626
				L411.426,142.655z"/>
			<path fill-rule="evenodd" clip-rule="evenodd" fill="#651D0D" d="M383.663,144.69c-1.876-3.657-6.862-6.238-10.41-3.078
				c-1.769,1.577-1.722,0.159-0.72-0.936c3.67-4.017,11.786-1.146,12.554,2.733C385.258,144.27,383.974,144.952,383.663,144.69z"/>
			<path fill-rule="evenodd" clip-rule="evenodd" fill="#FBB98C" d="M326.405,169.319c0.924,0.174,4.847,1.324,7.056,0.254
				c2.21-1.07,4.728-9.04,5.359-11.75s3.641-13.704,1.974-13.836c-1.667-0.133-5.292,12.204-5.646,12.095
				c-0.353-0.108,1.083-17.085-1.356-17.26c-2.44-0.175-2.277,16.983-2.879,16.961c-0.604-0.023-0.596-14.535-2.79-14.203
				c-2.193,0.331-0.84,14.93-1.6,14.364c-0.761-0.565-2.413-11.7-4.388-11.036c-1.975,0.665,1.333,12.833,1.333,12.833
				s0.023,5.773,1.129,8.818C325.702,169.604,326.405,169.319,326.405,169.319z"/>
			<path fill-rule="evenodd" clip-rule="evenodd" fill="#FBB98C" d="M325.703,157.385c0,0-0.917,1.583,0.481,5.574
				c0.606,1.732,1.387,3.28,2.076,4.478c0.899,1.562,1.643,2.526,1.643,2.526c-1.552-0.152-2.985-0.548-3.498-0.645
				c0,0-0.313,0.126-0.847-0.688c-0.268-0.409-0.593-1.055-0.961-2.073c-1.105-3.045-1.129-8.818-1.129-8.818
				s-3.308-12.168-1.333-12.833c0.071-0.023,0.141-0.032,0.211-0.027c-0.028,1.619,0.022,4.727,0.717,7.004
				C324.043,155.099,325.703,157.385,325.703,157.385z"/>
			
				<rect x="303.451" y="119.195" transform="matrix(-0.9876 0.1573 -0.1573 -0.9876 684.3303 225.7548)" fill-rule="evenodd" clip-rule="evenodd" fill="#0673A4" width="59.567" height="41.509"/>
			
				<rect x="351.311" y="123.451" transform="matrix(-0.9906 0.1371 -0.1371 -0.9906 721.83 222.4259)" fill-rule="evenodd" clip-rule="evenodd" fill="#FFFFFF" width="3.889" height="25.239"/>
			<path fill-rule="evenodd" clip-rule="evenodd" fill="#FBB98C" d="M331.991,169.971c0.386-0.372,1.235,0.014,2.141-0.916
				c2.394-2.451,5.726-7.181,6.018-7.59c0.404-0.565,3.711-8.245,2.479-7.746c-3.253,1.314-3.449,5.888-7.697,8.361
				C330.177,164.849,328.659,169.106,331.991,169.971z"/>
			<path fill-rule="evenodd" clip-rule="evenodd" fill="#FAAD7B" d="M328.261,167.437c-0.689-1.198-1.47-2.745-2.076-4.478
				c-0.102-0.289-0.19-0.565-0.27-0.829l-2.155,0.344c0.166,1.447,0.427,2.954,0.838,4.084c0.507,1.399,0.929,2.095,1.238,2.439
				c0.259,0.289,3.475,1.222,3.508,0.901C329.426,169.107,328.261,167.437,328.261,167.437z"/>
			<path fill-rule="evenodd" clip-rule="evenodd" fill="#A14823" d="M404.127,241.62c1.477-0.197,2.715-3.797,14.909,2.307
				c12.194,6.104,24.551,19.06,23.566,21.338c0,0-7.594,9.832-14.706,12.017c-3.495,1.074-23.18-21.568-25.415-27.068
				C400.244,244.714,404.127,241.62,404.127,241.62z"/>
			<path fill-rule="evenodd" clip-rule="evenodd" fill="#9B4222" d="M404.127,241.62c1.477-0.197,2.715-3.797,14.909,2.307
				c12.195,6.104,24.551,19.06,23.566,21.338c0,0-2.244,2.904-5.434,5.907c0.137-1.535,0.411-3.41,0.943-5.322
				c1.277-4.577-13.854-18.922-22.667-20.22c-7.926-1.167-11.135,3.618-12.411,5.695c-0.237-0.421-0.425-0.796-0.553-1.111
				C400.244,244.714,404.127,241.62,404.127,241.62z"/>
			<path fill-rule="evenodd" clip-rule="evenodd" fill="#773B19" d="M359.52,184.286c0,0,3.139,27.561,13.355,44.802
				c6.799,11.475,29.283,13.302,38.329,24.857c0,0,7.112-3.765,6.005-5.076c-15.438-18.288-44.442-8.091-49.762-55.966
				c-0.639-5.747-0.134-6.676,0.076-9.13C364.699,182.437,362.059,182.785,359.52,184.286z"/>
			<path fill-rule="evenodd" clip-rule="evenodd" fill="#2D160D" d="M396.182,248.666c2.38,8.257,11.597,20.759,15.537,28.943
				c1.319,2.741,2.177,4.923,2.732,6.623c-2.036,0.828-4.034,1.57-5.81,2.125c-1.457-0.747-2.789-1.27-3.912-1.609
				c-4.077-14.07-8.523-26.223-8.523-26.223c-0.075-0.402-0.219-0.808-0.438-1.219c-1.289-2.432-3.415-4.482-5.346-6.421
				C392.244,250.191,394.386,249.363,396.182,248.666z"/>
			<path fill-rule="evenodd" clip-rule="evenodd" fill="#CB6328" d="M396.182,248.666c-1.796,0.697-3.938,1.525-5.759,2.219
				c-0.961-0.965-1.874-1.902-2.612-2.844c-0.316-0.403-0.6-0.807-0.842-1.214c1.338-1.254,3.578-2.76,6.59-4.302
				c0.731,0.323,1.463,0.648,2.188,0.978c-0.018,0.119-0.035,0.239-0.05,0.36c-0.13,1.091-0.096,2.267,0.164,3.522
				C395.947,247.798,396.056,248.227,396.182,248.666z"/>
			<path fill-rule="evenodd" clip-rule="evenodd" fill="#069974" d="M393.771,263.408c-1.505,1.271-3.606,2.469-6.071,3.582
				c-3.861,1.746-8.618,3.285-13.37,4.573c-0.695,0.188-1.389,0.37-2.081,0.548c-8.421,2.16-16.418,3.508-18.94,3.799
				c-0.294-0.536-0.594-1.612-0.84-3.031c-0.819-4.751-1.027-13.364,1.593-18.6c5.3-10.587,3.437-21.897,1.221-31.154
				c2.381,2.216,7.298,3.568,9.04,3.568c1.107,0-0.476,15.002-0.486,28.102c-0.006,7.333-7.718,17.595-4.804,18.181
				C367.05,274.589,389.413,263.718,393.771,263.408z"/>
			<path fill-rule="evenodd" clip-rule="evenodd" fill="#069974" d="M354.462,218.331c2.022,5.321,9.859,8.362,9.859,8.362
				c-3.485,0-6.659-1.352-9.04-3.568c-2.664-2.48-4.334-6.042-4.334-10.001c0-1.87,0.372-3.651,1.047-5.272
				c1.086-2.608,2.951-4.8,5.301-6.275c-1.122,1.923-2.437,4.143-3.152,5.419C352.652,209.657,352.44,213.009,354.462,218.331z"/>
			<path fill-rule="evenodd" clip-rule="evenodd" fill="#069974" d="M351.994,207.852c-2.188,0.454-11.801,2.374-11.609,1.039
				c0.021-0.155,0.003-0.423-0.046-0.779c-0.269-1.937-1.456-6.471-2.019-9.586c-0.094-0.708-0.189-1.164-0.189-1.164
				s2.922,6.122,5.157,6.973c1.003,0.383,4.229-0.792,7.523-2.234c4.038-1.771,8.176-3.945,8.439-4.15
				c0.249-0.193-0.739,1.542-1.956,3.627C354.945,203.051,353.08,205.244,351.994,207.852z"/>
			<path fill-rule="evenodd" clip-rule="evenodd" fill="#FAAD7B" d="M443.983,200.741c0,0-17.562,32.672-22.03,34.162
				c-2.534,0.845-8.521-5.456-13.231-11.074l6.354-6.981c-0.616,1.67-1.918,5.259-1.918,5.747c0,0.638,5.108,7.609,8.087,7.822
				c2.98,0.212,19.477-28.202,19.742-28.708c0.266-0.505-0.958-3.645-1.117-3.884c-0.16-0.24,2.288,1.33,3.671,1.676
				c1.384,0.346,4.976-3.645,5.801-4.656c0.824-1.011,0.611-3.273,0.611-3.273l1.597,1.251l9.099-7.498
				c1.046,1.491-8.342,8.466-8.342,8.466s-3.337,4.105-5.887,5.708C443.911,201.077,443.98,200.751,443.983,200.741z"/>
			<path fill-rule="evenodd" clip-rule="evenodd" fill="#069974" d="M392.258,219.84c0.995-1.317,1.729-3.486,2.267-5.868
				c0.511-2.262,0.847-4.715,1.065-6.812c0.307-2.961,0.38-5.211,0.38-5.211s4.184,6.581,7.789,11.634
				c1.926,2.699,3.686,4.961,4.556,5.554c2.502,1.702,7.078-3.14,7.078-3.14s-0.125,0.333-0.316,0.852l-6.354,6.981l-0.623,0.686
				l-11.046-11.912c0.015,0.257,0.021,0.517,0.021,0.778c0,6.422-4.398,11.803-10.306,13.21c-0.39,1.157-0.725,2.378-0.989,3.661
				c-1.52-1.036-2.996-2.19-4.411-3.507c-5.402-5.029-9.906-12.429-12.47-24.614c1.07,2.713,2.4,5.905,3.816,8.651
				c3.314,6.437,9.313,14.048,9.791,14.42c0.306,0.237,2.851-0.245,5.504-1.747C389.522,222.6,391.069,221.413,392.258,219.84z"/>
			<path fill-rule="evenodd" clip-rule="evenodd" fill="#069974" d="M365.571,212.084c1.407,4.417,3.102,8.876,5.124,12.972
				c0.688,1.391,1.414,2.741,2.18,4.033c2.487,4.197,7.073,7.104,12.335,9.669c0.134,2.019,0.46,4.139,1.022,6.356
				c0.148,0.583,0.402,1.151,0.736,1.713c0.242,0.407,0.525,0.811,0.842,1.214c0.738,0.942,1.651,1.879,2.612,2.844
				c1.931,1.938,4.057,3.99,5.346,6.421c0.219,0.411,0.362,0.817,0.438,1.219c0.198,1.066-0.091,2.1-0.769,3.094
				c-0.948-1.04-2.055-2.257-3.225-3.549c-1.73-1.912-3.595-3.987-5.28-5.888c-0.401-0.454-0.794-0.897-1.171-1.327
				c-0.194-0.222-0.378-0.441-0.551-0.659c-4.306-5.407-2.015-9.35-2.015-9.35s-7.023-3.938-10.271-8.674
				c-0.855-1.248-1.914-3.734-3.011-6.719C368.389,221.298,366.791,216.177,365.571,212.084z"/>
			<g>
				<path fill-rule="evenodd" clip-rule="evenodd" fill="#7E2B19" d="M396.635,125.77c2.446,10.331,7.624,19.306,15.964,25.968
					C402.948,147.261,396.58,136.308,396.635,125.77z"/>
			</g>
			<g>
				<path fill-rule="evenodd" clip-rule="evenodd" fill="#59180B" d="M402.063,124.173c1.012,10.561,8.188,19.153,16.922,24.69
					C409.445,145.579,400.118,134.854,402.063,124.173z"/>
			</g>
			<g>
				<path fill-rule="evenodd" clip-rule="evenodd" fill="#59180B" d="M407.597,127.579c2.563,2.66,16.784,16.516,14.9,20.114
					c-0.145-0.217-0.093-0.104-0.164-0.339l0.011,0.047C417.142,139.635,412.626,135.554,407.597,127.579z"/>
			</g>
			<g>
				<path fill-rule="evenodd" clip-rule="evenodd" fill="#59180B" d="M420.581,151.95c1.479,4.678,6.021,17.837,9.153,22.137
					C423.897,171.826,420.931,156.675,420.581,151.95z"/>
			</g>
			<g>
				<path fill-rule="evenodd" clip-rule="evenodd" fill="#7E2B19" d="M417.389,169.404c2.392,3.691,4.835,6.899,7.556,10.43
					C422.019,178.226,415.491,171.36,417.389,169.404z"/>
			</g>
			<g>
				<path fill-rule="evenodd" clip-rule="evenodd" fill="#59180B" d="M409.513,172.703c1.91,3.462,4.76,8.336,8.195,10.323
					C415.455,184.597,409.129,177.763,409.513,172.703z"/>
			</g>
			<g>
				<path fill-rule="evenodd" clip-rule="evenodd" fill="#59180B" d="M402.808,182.494c-0.544-0.301-0.636-1.357,4.563,2.715
					c1.767,1.384,2.494,1.715,4.377,2.819c-3.685,0.329-7.722-2.488-8.929-5.555L402.808,182.494L402.808,182.494z M402.868,182.386
					c0.046-0.017,0.088-0.045,0.085-0.112l-0.01-0.002C402.927,182.288,402.897,182.338,402.868,182.386z"/>
			</g>
			<g>
				<path fill-rule="evenodd" clip-rule="evenodd" fill="#7E2B19" d="M394.507,184.942c3.843,1.525,7.104,2.195,11.068,3.512
					C401.201,188.896,397.188,188.891,394.507,184.942z"/>
			</g>
			<g>
				<path fill-rule="evenodd" clip-rule="evenodd" fill="#7E2B19" d="M404.299,178.556c4.131,1.956,5.916,3.663,9.578,5.747
					C409.64,184.861,406.727,181.555,404.299,178.556z"/>
			</g>
			<g>
				<path fill-rule="evenodd" clip-rule="evenodd" fill="#7E2B19" d="M394.507,120.874c-2.796,9.244-12.505,10.288-20.381,11.122
					C383.488,128.654,387.978,129.09,394.507,120.874z"/>
			</g>
			<g>
				<path fill-rule="evenodd" clip-rule="evenodd" fill="#59180B" d="M387.909,120.342c-5.77,3.587-19.694,10.527-22.853,17.065
					c0.004,0.012,0.009,0.03,0.023,0.069c-0.06,0.015-0.151,0.052-0.188-0.023C362.037,131.825,386.521,120.922,387.909,120.342z"/>
			</g>
			<g>
				<path fill-rule="evenodd" clip-rule="evenodd" fill="#7E2B19" d="M385.78,117.042c-9.041,5.993-4.441,3.145-13.798,8.549
					l0.022-0.021c-0.392,0.257-0.178,0.153-0.646,0.305C372.792,121.219,382.152,118.474,385.78,117.042z"/>
			</g>
			<g>
				<path fill-rule="evenodd" clip-rule="evenodd" fill="#59180B" d="M393.017,119.916c-7.122,5.812-3.273,3.62-11.44,6.758
					C388.537,121.534,384.749,123.827,393.017,119.916z"/>
			</g>
		</g>
		<path fill-rule="evenodd" clip-rule="evenodd" fill="#593C1C" d="M214.4,212.095c-0.502,0.86-1.505,6.809-1.218,8.817
			c0.287,2.007,3.621,13.476,3.621,13.476s0.68,0.502,1.88,0.95s10.413-10.537,9.768-14.122
			C227.806,217.633,214.4,212.095,214.4,212.095z"/>
		<path fill-rule="evenodd" clip-rule="evenodd" fill="#856352" d="M214.486,218.602c-1.124,1.735,1.33,12.549,2.317,15.786
			c0.157,0.514-14.616-26.305,0.141-39.05c2.585-2.232,9.883-3.325,15.629-3.82c5.382-0.464,23.109-0.609,23.719-0.323
			C256.402,191.247,222.488,206.251,214.486,218.602z"/>
		<path fill-rule="evenodd" clip-rule="evenodd" fill="#513926" d="M228.273,200.553c-5.305,2.868-8.458,6.882-10.752,14.767
			c-2.295,7.886,2.436,4.731-0.145,18.208c-2.58,13.477-0.717,27.526,5.305,33.548c6.021,6.021,38.279,5.161,46.307-3.44
			c8.029-8.603-5.199-59.229-13.496-63.879C247.197,195.105,228.273,200.553,228.273,200.553z"/>
		<path fill-rule="evenodd" clip-rule="evenodd" fill="#392617" d="M234.653,197.256c-5.305,2.867-8.459,6.881-10.752,14.767
			c-2.294,7.885,2.436,4.731-0.145,18.208s-2.15,27.958,3.871,33.978c6.021,6.022,34.71,5.65,42.738-2.952
			c8.029-8.602-0.197-60.147-8.493-64.798S234.653,197.256,234.653,197.256z"/>
		<path fill-rule="evenodd" clip-rule="evenodd" fill="#F9A974" d="M215.231,196.336c-10.387-0.785-6.364,0.677-21.533-3.888
			c0.606,0.46-16.034-9.927-27.625-32.016l-5.848,5.089c10.397,19.401,20.835,31.508,35.018,39.667
			c4.428,2.548,8.722,2.62,13.276,4.295L215.231,196.336z"/>
		<path fill-rule="evenodd" clip-rule="evenodd" fill="#26110C" d="M276.44,354.375c-0.788,0.86-4.445,4.302-4.445,4.302
			l-3.942,4.73c0,0,4.158,8.028,7.025,11.899s13.118,7.526,14.408,3.585c1.29-3.943-6.595-9.032-7.742-12.76
			s-0.932-7.098-0.932-7.098L276.44,354.375z"/>
		<path fill-rule="evenodd" clip-rule="evenodd" fill="#26110C" d="M201.387,359.68c0,0-5.877,7.313-6.165,9.318
			c-0.286,2.007-3.082,18.781-8.386,20.789c-5.305,2.007-6.667-4.444-5.521-13.334c1.147-8.889,5.448-14.193,6.882-14.91
			c1.434-0.716,11.613-6.595,11.613-6.595L201.387,359.68z"/>
		<path fill-rule="evenodd" clip-rule="evenodd" fill="#442813" d="M238.384,269.33c-2.824,7.152-15.376,54.357-15.376,54.357
			l-30.827,34.878c0,0,2.161,10.596,5.625,7.564c1.841-1.611,33.618-26.553,40.813-33.062c4.202-3.801,17.91-34.4,18.822-34.502
			c1.949-0.216,32.102,18.99,32.102,18.99s-16.372,37.841-16.574,39.77c-0.202,1.93,4.18,4.623,7.861,3.541
			c3.681-1.083,29.67-40.861,28.371-44.326c-1.299-3.465-33.351-47.211-33.351-47.211H238.384z"/>
		<path fill-rule="evenodd" clip-rule="evenodd" fill="#F9A974" d="M273.645,211.657c5.456,2.51,5.502,3.757,16.778,5.201
			c-0.554-0.421,17.945,13.688,35.347,21.812l2.596-4.393c-11.169-9.095-24.344-20.91-33.245-26.445
			c-6.384-3.969-9.866-3.924-16.309-6.294L273.645,211.657z"/>
		<path fill-rule="evenodd" clip-rule="evenodd" fill="#F9A974" d="M323.775,235.175l1.994,3.494c0,0,4.17,14.211,4.826,13.359
			c0.656-0.853,0-8.788,0-8.788s8.262,4.459,9.837,5.967c1.572,1.508,5.376,5.048,5.048,3.869c-0.327-1.18-4.983-7.278-4.983-7.278
			s3.409,2.918,3.803,3.376c0.394,0.459,2.591,2.754,2.689,1.279c0.124-1.866-9.72-11.944-11.912-12.806
			c-1.836-0.721-6.712-3.372-6.712-3.372L323.775,235.175z"/>
		<path fill-rule="evenodd" clip-rule="evenodd" fill="#F9A974" d="M330.596,242.29c1.639,1.573,6.393,5.409,6.459,5.639
			c0.065,0.23,3.049,7.574,3.376,6.459c0.328-1.115-1.146-7.017-1.278-7.213c-0.131-0.197-5.409-5.082-5.672-5.115
			S330.596,242.29,330.596,242.29z"/>
		<path fill-rule="evenodd" clip-rule="evenodd" fill="#F9A974" d="M334.801,239.144c0.933,0.609,1.981,0.41,1.981,0.41l9.31,7.798
			c0,0,0.395,0.465-0.932,0.394c-1.327-0.072-9.749-6.918-9.749-6.918L334.801,239.144z"/>
		<path fill-rule="evenodd" clip-rule="evenodd" fill="#F69B61" d="M290.423,216.858c-0.554-0.421,17.945,13.688,35.347,21.812
			l-1.62-2.839l-30.208-20.887l0.899-7.257C294.689,208.852,292.254,213.292,290.423,216.858z"/>
		<path fill-rule="evenodd" clip-rule="evenodd" fill="#F9A974" d="M324.149,235.831l1.62,2.839c0,0,3.728,12.703,4.688,13.369
			c0.089-0.006,0.138-0.01,0.138-0.01l-3.344-14.266l-0.691-0.431L324.149,235.831z"/>
		<path fill-rule="evenodd" clip-rule="evenodd" fill="#F5841F" d="M197.474,193.576l-2.864,20.684l30.768,5.498
			c0,0,3.655,50.098,3.684,62.831c0.018,7.923,43.326,2.419,55.391-6.216l-13.051-59.253c0,0,16.915,7.014,16.699,5.498
			c-0.216-1.516,8.206-15.46,6.907-15.46c-0.891,0-25.851-15.592-29.564-15.808c-4.002-0.232-8.516-0.451-11.951,0.172
			c-8.129,1.477-14.144,5.083-21.125,4.073C227.384,194.269,212.551,194.895,197.474,193.576z"/>
		<path fill-rule="evenodd" clip-rule="evenodd" fill="#F17A22" d="M279.163,252.355l-7.762-35.236c0,0,16.915,7.014,16.699,5.498
			c-0.197-1.381,6.781-13.085,7.035-15.148l-8.581,8.369l-13.477-8.96l-6.549-12.541l-8.826-3.204
			c-0.419,0.011-0.833,0.029-1.239,0.053l10.652,34.055c0,0,6.506,17.611,6.516,18.478
			C273.636,244.117,276.297,248.18,279.163,252.355z"/>
		<path fill-rule="evenodd" clip-rule="evenodd" fill="#F9A974" d="M253.492,191.521c-0.722,0.122-2.124,0.138-2.817,0.267
			c-4.341,0.81-7.566,1.855-13.012,2.677c-1.505,0.228-3.586,1.007-5.296,1.128c-0.106,0.415-0.162,0.841-0.162,1.275
			c0,4.336,5.502,7.851,12.29,7.851c6.788,0,12.29-3.515,12.29-7.851C256.785,194.802,255.535,192.923,253.492,191.521z"/>
		<path fill-rule="evenodd" clip-rule="evenodd" fill="#F9A974" d="M235.129,183.821c0.542,1.732,3.032,14.617,3.032,14.617
			s6.28,2.816,9.962,0.542s4.006-3.79,4.006-3.79l-5.414-12.669L235.129,183.821z"/>
		<path fill-rule="evenodd" clip-rule="evenodd" fill="#651D0D" d="M214.249,169.914c-1.917-2.927-3.16-4.396-7.5-14.792
			c-4.34-10.396,3.229-16.149,3.229-16.149s-0.504-6.157,2.928-11.607c3.432-5.45,4.945-6.864,4.643-5.753
			c-0.302,1.111,0.101,2.523,0.303,1.716c0.202-0.808,6.562-6.662,6.562-6.662s0.656,2.927,1.009,2.574
			c0.353-0.353,1.11-1.867,10.295-4.441c9.185-2.574,16.755-2.927,16.149-2.473c-0.605,0.454-3.431,3.027-2.826,2.826
			c0.606-0.202,7.974,0,11.254-0.555s4.794-1.262,4.088-0.909c-0.707,0.354-3.331,7.015-4.997,8.781
			c-1.666,1.766-1.715,1.716-1.715,1.716s0.708-0.656,6.107,1.666c5.4,2.322,7.167,4.694,6.864,4.492
			c-0.303-0.202-9.842,0.958-9.842,0.958s2.978,11.002,2.474,14.232c-0.505,3.23-2.624,13.551-3.278,13.705L214.249,169.914z"/>
		<path fill-rule="evenodd" clip-rule="evenodd" fill="#FBB98C" d="M230.167,129.628c14.667-3.16,26.055,8.778,29.666,25.54
			c3.612,16.761-1.922,32-16.588,35.16c-14.667,3.16-26.644-8.306-30.255-25.067C209.378,148.498,215.5,132.788,230.167,129.628z"/>
		<path fill-rule="evenodd" clip-rule="evenodd" fill="#F89D65" d="M212.034,153.881c0.45-8.264,3.537-15.49,9.087-19.983
			c5.582,0.36,22.922,3.515,22.922,3.515s5.09,3.871,5.52,3.871s-0.645,0.646-4.875,1.147c-4.229,0.501-16.344-1.004-16.774-1.147
			c-0.43-0.143,5.233,5.807,5.233,5.807s-1.792,0.501-7.957-1.147c-2.993-0.8-5.733-2.649-7.777-4.396
			c-0.916,1.731-2.02,3.937-3.047,5.901C213.288,149.512,212.524,151.964,212.034,153.881z"/>
		<path fill-rule="evenodd" clip-rule="evenodd" fill="#651D0D" d="M213.043,134.854c2.71,2.493,6.258,5.854,15.241,7.368
			c8.983,1.514,10.497,0.808,10.497,0.808s-4.845-4.139-3.533-3.735c1.312,0.404,7.974,0.909,12.919,1.01
			c4.946,0.101,4.644-0.203,4.644-0.203s-5.653-3.431-4.441-3.431c1.211,0,9.286-0.909,9.286-0.909s-5.147-10.8-15.442-11.809
			C231.918,122.944,213.043,134.854,213.043,134.854z"/>
		<path fill-rule="evenodd" clip-rule="evenodd" fill="#4A160F" d="M224.403,156.99c1.359,0,2.75,1.833,3.107,4.094
			c0.357,2.262-0.456,4.095-1.815,4.095c-1.359,0-2.75-1.833-3.107-4.095C222.231,158.823,223.043,156.99,224.403,156.99z"/>
		<path fill-rule="evenodd" clip-rule="evenodd" fill="#4A160F" d="M247.719,151.236c1.36,0,2.751,1.833,3.108,4.095
			c0.356,2.261-0.456,4.095-1.815,4.095c-1.36,0-2.751-1.833-3.107-4.095C245.547,153.069,246.359,151.236,247.719,151.236z"/>
		<path fill-rule="evenodd" clip-rule="evenodd" fill="#F89A63" d="M235.604,159.649c0,0.808,8.176,5.955,8.176,5.955
			c1.476,2.416-6.079,7.247-7.974,4.946c2.667-0.243,5.425-2.026,6.41-4.567C240.611,164.983,235.45,161.783,235.604,159.649z"/>
		<path fill-rule="evenodd" clip-rule="evenodd" fill="#F9A974" d="M160.931,165.521c0.889-0.393,4.903-1.709,6.159-3.914
			c1.256-2.204-1.264-10.467-2.313-13.146c-1.048-2.678-4.92-13.804-6.417-12.941s2.635,13.494,2.271,13.607
			c-0.364,0.114-9.078-15.187-11.259-13.908c-2.181,1.279,8.002,15.798,7.475,16.132c-0.526,0.333-9.014-12.032-10.688-10.465
			c-1.675,1.567,8.023,13.209,7.044,13.172s-8.903-8.554-10.196-6.832c-1.293,1.721,8.646,10.151,8.646,10.151
			s3.399,4.903,6.122,6.85C160.498,166.175,160.931,165.521,160.931,165.521z"/>
		<path fill-rule="evenodd" clip-rule="evenodd" fill="#F9A974" d="M153.348,155.767c0,0,0.146,1.885,3.672,4.466
			c1.531,1.121,3.102,1.982,4.391,2.599c1.679,0.804,2.877,1.191,2.877,1.191c-1.412,0.779-2.864,1.28-3.357,1.498
			c0,0-0.191,0.29-1.123-0.09c-0.468-0.191-1.122-0.552-2.033-1.203c-2.723-1.947-6.122-6.85-6.122-6.85s-9.939-8.43-8.646-10.151
			c0.046-0.062,0.102-0.111,0.164-0.147c0.923,1.396,2.786,4.013,4.71,5.546C150.595,154.791,153.348,155.767,153.348,155.767z"/>
		
			<rect x="118.777" y="115.057" transform="matrix(-0.7249 0.6889 -0.6889 -0.7249 352.006 132.4242)" fill-rule="evenodd" clip-rule="evenodd" fill="#F5841F" width="61.562" height="42.899"/>
		
			<rect x="162.331" y="108.442" transform="matrix(-0.7387 0.674 -0.674 -0.7387 367.6253 100.4658)" fill-rule="evenodd" clip-rule="evenodd" fill="#FFFFFF" width="4.019" height="26.085"/>
		<path fill-rule="evenodd" clip-rule="evenodd" fill="#F9A974" d="M166.071,162.806c0.111-0.543,1.06-0.711,1.288-2.033
			c0.603-3.488,0.673-9.467,0.682-9.987c0.013-0.717-1.664-9.195-2.423-8.048c-2.002,3.023,0.508,7.034-1.662,11.626
			C161.527,159.505,162.727,164.019,166.071,162.806z"/>
		<path fill-rule="evenodd" clip-rule="evenodd" fill="#FBB98C" d="M211.235,161.831c2.724,0,5.432,2.921,6.049,6.523
			c0.617,3.604-1.09,6.524-3.815,6.524c-2.724,0-5.433-2.92-6.049-6.524C206.803,164.751,208.511,161.831,211.235,161.831z"/>
		<path fill-rule="evenodd" clip-rule="evenodd" fill="#FBB98C" d="M261.136,149.286c2.724,0,5.104,2.92,5.317,6.523
			c0.213,3.603-1.822,6.523-4.547,6.523c-2.724,0-5.104-2.92-5.317-6.523C256.376,152.206,258.412,149.286,261.136,149.286z"/>
		<path fill-rule="evenodd" clip-rule="evenodd" fill="#E2CAB7" d="M183.608,386.882c-1.864-5.019,0.609-15.271,2.007-18.961
			c0.889-2.349,2.287-5.047,3.186-6.698c-0.266,0.146-0.472,0.255-0.604,0.32c-1.434,0.717-5.735,6.021-6.882,14.91
			c-1.068,8.278,0.04,14.442,4.481,13.63C185.032,389.583,184.259,388.634,183.608,386.882z"/>
		<path fill-rule="evenodd" clip-rule="evenodd" fill="#F5841F" d="M188.174,369.327c-0.396,0-0.717-0.321-0.717-0.718
			c0-0.395,0.321-0.716,0.717-0.716c0.09,0,1.577,0.396,2.949,0.933c0.746,0.291,1.492,0.629,2.028,0.978
			c1.47,0.954,2.186,1.809,2.188,1.812c0.25,0.305,0.207,0.755-0.098,1.005c-0.305,0.252-0.755,0.207-1.005-0.097
			c-0.002-0.003-0.573-0.685-1.863-1.521c-0.439-0.285-1.098-0.581-1.771-0.843C189.379,369.68,188.223,369.327,188.174,369.327z"/>
		<path fill-rule="evenodd" clip-rule="evenodd" fill="#F5841F" d="M194.528,374.346c0.309,0.247,0.361,0.697,0.115,1.007
			c-0.246,0.309-0.696,0.36-1.005,0.114c-1.059-0.844-2.101-1.459-3.198-1.936c-1.111-0.482-2.294-0.831-3.619-1.133
			c-0.385-0.086-0.627-0.469-0.54-0.854c0.086-0.385,0.469-0.627,0.854-0.54c1.401,0.318,2.664,0.692,3.871,1.216
			C192.225,372.751,193.373,373.428,194.528,374.346z"/>
		<path fill-rule="evenodd" clip-rule="evenodd" fill="#F5841F" d="M193.462,377.319c0.262,0.295,0.236,0.749-0.059,1.012
			c-0.295,0.263-0.749,0.236-1.011-0.06c-0.333-0.374-1.548-1.029-2.826-1.596c-1.25-0.554-2.501-0.998-2.981-0.984
			c-0.394,0.011-0.723-0.301-0.733-0.695c-0.011-0.394,0.299-0.722,0.694-0.733c0.701-0.02,2.188,0.479,3.597,1.103
			C191.579,376.001,192.994,376.793,193.462,377.319z"/>
		<path fill-rule="evenodd" clip-rule="evenodd" fill="#F5841F" d="M278.724,366.212c-0.22,0.146-0.515,0.086-0.661-0.134
			s-0.085-0.517,0.134-0.661c0.098-0.064,0.192-0.121,0.284-0.171l0.028-0.015c0.678-0.36,1.473-0.522,2.178-0.477
			c0.774,0.051,1.46,0.351,1.832,0.912c0.031,0.047,0.056,0.088,0.076,0.124c0.126,0.231,0.04,0.522-0.192,0.648
			c-0.232,0.125-0.522,0.04-0.647-0.193l-0.031-0.053c-0.194-0.293-0.608-0.454-1.096-0.486c-0.538-0.034-1.146,0.089-1.668,0.365
			l-0.023,0.013C278.858,366.129,278.787,366.17,278.724,366.212z"/>
		<path fill-rule="evenodd" clip-rule="evenodd" fill="#E2CAB7" d="M286.135,378.295c-9.438-1.458-13.066-10.575-16.75-16.486
			l-1.332,1.599c0,0,4.158,8.028,7.025,11.899s13.118,7.526,14.408,3.585c0.1-0.305,0.145-0.616,0.143-0.933
			C288.708,378.247,287.48,378.503,286.135,378.295z"/>
		<path fill-rule="evenodd" clip-rule="evenodd" fill="#F5841F" d="M280.408,369.223c-0.219,0.146-0.515,0.086-0.661-0.134
			s-0.085-0.516,0.135-0.66c0.098-0.065,0.193-0.123,0.283-0.172l0.028-0.015c0.679-0.36,1.473-0.522,2.179-0.477
			c0.774,0.052,1.46,0.352,1.831,0.912c0.03,0.046,0.056,0.088,0.076,0.124c0.126,0.232,0.04,0.522-0.192,0.647
			c-0.231,0.126-0.522,0.04-0.647-0.191l-0.031-0.054c-0.194-0.294-0.608-0.453-1.096-0.485c-0.539-0.036-1.147,0.089-1.668,0.364
			l-0.023,0.013C280.542,369.14,280.471,369.182,280.408,369.223z"/>
		<path fill-rule="evenodd" clip-rule="evenodd" fill="#F5841F" d="M282.595,371.984c-0.219,0.145-0.515,0.084-0.661-0.135
			c-0.146-0.22-0.085-0.516,0.134-0.661c0.098-0.064,0.193-0.122,0.284-0.17l0.028-0.016c0.679-0.36,1.473-0.522,2.178-0.476
			c0.774,0.05,1.46,0.351,1.832,0.911c0.03,0.047,0.056,0.088,0.076,0.125c0.126,0.231,0.04,0.521-0.192,0.647
			c-0.232,0.125-0.523,0.039-0.648-0.192l-0.031-0.054c-0.194-0.294-0.608-0.453-1.096-0.485c-0.539-0.035-1.146,0.089-1.668,0.364
			l-0.023,0.014C282.729,371.9,282.658,371.942,282.595,371.984z"/>
		<path fill-rule="evenodd" clip-rule="evenodd" fill="#73523F" d="M224.91,194.795c0,0-1.725,31.136-1.151,40.312
			c0.573,9.176,3.071,13.486,4.504,11.192c1.434-2.293,7.206-48.15,6.763-51.212C234.583,192.024,224.838,192.716,224.91,194.795z"
			/>
		<path fill-rule="evenodd" clip-rule="evenodd" fill="#73523F" d="M265.443,191.348c0,0,10.438,28.266,11.574,37.441
			s-0.559,13.486-2.42,11.193c-1.861-2.294-10.865-41.661-18.305-48.788C255.447,188.943,264.339,187.549,265.443,191.348z"/>
		<path fill-rule="evenodd" clip-rule="evenodd" fill="#651D0D" d="M229.599,153.824c-2.565,0.239-9.242,1.383-11.051,2.174
			s-2.06-2.198-0.419-2.753c1.642-0.555,7.945-2.018,10.181-2.36S230.305,153.967,229.599,153.824z"/>
		<path fill-rule="evenodd" clip-rule="evenodd" fill="#651D0D" d="M242.229,151.065c2.307-1.147,8.586-3.69,10.539-3.97
			c1.954-0.28,0.594-2.953-1.093-2.561c-1.687,0.392-7.817,2.467-9.897,3.353C239.696,148.774,241.704,151.559,242.229,151.065z"/>
		<g>
			<path fill-rule="evenodd" clip-rule="evenodd" fill="#59180B" d="M214.975,132.433c-0.768-4.482,8.528-11.698,12.401-10.251
				C222.729,124.323,217.795,128.141,214.975,132.433z"/>
		</g>
		<g>
			<path fill-rule="evenodd" clip-rule="evenodd" fill="#59180B" d="M221.498,129.565c11.695-7.954,11.344-6.107,25.018-4.516
				C236.454,127.864,238.169,122.851,221.498,129.565z"/>
		</g>
		<g>
			<path fill-rule="evenodd" clip-rule="evenodd" fill="#7E2B19" d="M231.318,119.314c13.086-3.673,19.861,7.113,25.735,1.075
				c0.493,1.054-1.75,2.062-2.365,2.287C246.976,125.497,243.308,119.31,231.318,119.314z"/>
		</g>
		<g>
			<path fill-rule="evenodd" clip-rule="evenodd" fill="#59180B" d="M236.838,116.161c4.061-2.027,4.444-2.46,8.889-1.434
				C241.806,116.207,241.022,116.942,236.838,116.161z"/>
		</g>
		<g>
			<path fill-rule="evenodd" clip-rule="evenodd" fill="#7E2B19" d="M220.064,133.866c3.07,2.583,9.689,5.267,13.62,5.663
				C233.889,141.709,220.487,139.159,220.064,133.866z"/>
		</g>
		<g>
			<path fill-rule="evenodd" clip-rule="evenodd" fill="#59180B" d="M226.085,131.214c3.694,2.243,15.292,4.413,19.785,4.445
				C242.417,138.644,226.064,134.523,226.085,131.214z"/>
		</g>
		<g>
			<path fill-rule="evenodd" clip-rule="evenodd" fill="#7E2B19" d="M230.53,129.565c18.729-3.865,21.608-1.381,29.964,13.62
				C247.359,129.023,253.177,129.734,230.53,129.565z"/>
		</g>
		<g>
			<path fill-rule="evenodd" clip-rule="evenodd" fill="#59180B" d="M249.455,126.554c5.141,1.542,11.989,1.096,15.412,2.151
				C261.732,130.937,249.447,129.219,249.455,126.554z"/>
		</g>
		<g>
			<path fill-rule="evenodd" clip-rule="evenodd" fill="#59180B" d="M244.652,116.447c4.84,0.655,11.627,1.718,16.415,0.215
				C258.228,121.89,248.093,118.227,244.652,116.447z"/>
		</g>
		<g>
			<path fill-rule="evenodd" clip-rule="evenodd" fill="#7E2B19" d="M213.504,140.103c-1.624,4.89-3.95,9.498-3.423,14.722
				l-0.058-0.014l0.041,0.023c0.004,0.098,0.014,0.056-0.016,0.128c-0.042,0.016-0.07,0.027-0.112-0.004
				C205.57,151.774,211.847,142.386,213.504,140.103z"/>
		</g>
		<g>
			<path fill-rule="evenodd" clip-rule="evenodd" fill="#59180B" d="M208.881,143.006c-0.582,2.796-1.49,5.503-1.838,8.348
				l-0.046-0.083c0.037,0.181,0.034,0.081-0.016,0.302C205.821,151.716,204.494,145.414,208.881,143.006z"/>
		</g>
		<g>
			<path fill-rule="evenodd" clip-rule="evenodd" fill="#321C0F" d="M213.72,135.013c5.704,0.988,3.214-0.136,7.562,3.154
				C215.864,137.295,218.405,138.297,213.72,135.013z"/>
		</g>
		<path fill-rule="evenodd" clip-rule="evenodd" fill="#F69B61" d="M161.411,162.832c-1.289-0.617-2.86-1.478-4.391-2.599
			c-0.255-0.187-0.492-0.37-0.713-0.548l-1.636,1.554c0.989,1.135,2.093,2.266,3.104,2.989c1.251,0.895,2.019,1.24,2.483,1.352
			c0.546,0.132,0.672-0.059,0.672-0.059c0.28-0.124,0.87-0.339,1.586-0.645c-0.19-0.343-0.358-0.648-0.502-0.912
			C161.623,163.242,161.411,162.832,161.411,162.832z"/>
		<path fill-rule="evenodd" clip-rule="evenodd" fill="#F69B61" d="M162.517,164.876c-0.716,0.306-1.306,0.521-1.586,0.645
			c0,0-0.126,0.191-0.672,0.059c10.386,19.367,20.817,31.458,34.985,39.608c0.193,0.111,0.386,0.217,0.578,0.319l0.67-4.834
			c0,0-12.878-7.81-20.62-16.341C170.009,177.873,164.733,168.867,162.517,164.876z"/>
		<path fill-rule="evenodd" clip-rule="evenodd" fill="#F17A22" d="M210.389,211.798c-1.351-0.771-2.682-1.813-3.951-2.989
			c-5.24-4.856-9.41-12.013-9.41-12.013l-0.537,3.876l-0.67,4.834l-1.212,8.752l16.275,2.908l2.409,0.43l1.675,0.3l1.943,0.347
			l6.922,1.238c0.008-0.236,0.015-0.472,0.023-0.709c0.02-0.63,0.041-1.263,0.063-1.897c0.064-1.886,0.135-3.778,0.21-5.619
			c0.027-0.673,0.055-1.339,0.083-1.996c0.093-2.191,0.188-4.273,0.276-6.139c0.123-2.584,0.233-4.756,0.31-6.233l-0.52,6.416
			l-0.508,6.284l-0.367,4.53l-0.148,1.829c0,0-0.412-0.028-1.205-0.166c-0.933-0.161-2.392-0.474-4.325-1.069
			c-0.007-0.002-0.014-0.005-0.022-0.007c-1.09-0.337-2.331-0.763-3.71-1.302c-0.744-0.291-1.527-0.614-2.35-0.973
			C211.224,212.249,210.805,212.037,210.389,211.798z"/>
		<path fill-rule="evenodd" clip-rule="evenodd" fill="#F17A22" d="M227.241,246.885c0.388,5.989,0.775,12.241,1.091,17.926
			c0.096,1.706,0.184,3.362,0.265,4.943c0.278,5.458,0.458,10.043,0.464,12.834c0.003,1.531,1.624,2.561,4.322,3.164
			c10.458,2.334,37.115-1.744,48.673-7.913c0.557-0.299,1.08-0.601,1.563-0.907c-0.738-0.038-1.519-0.089-2.337-0.157
			c-6.869-0.568-16.426-2.308-26.652-7.063c-0.272-0.127-0.542-0.254-0.809-0.382c-0.915-0.437-1.792-0.876-2.636-1.316
			c-16.818-8.789-19.704-18.158-19.974-20.312c-0.261-2.088,2.774-38.644,3.319-45.171c0.054-0.641,0.083-0.993,0.083-0.993
			c-0.032,0.325-0.065,0.66-0.1,1.003c-1.4,13.865-5.137,41.976-6.251,43.758C227.961,246.783,227.61,246.974,227.241,246.885z"/>
		<path fill-rule="evenodd" clip-rule="evenodd" fill="#F39259" d="M211.75,164.08c-3.635,0-3.524,6.571,0.502,8.315
			c2.151,0.932,2.473-0.967,2.079-1.577c-0.395-0.609-1.398-0.322-2.079-1.649c-0.681-1.326,0.411-0.964,0.574-2.437
			C212.988,165.26,211.75,164.08,211.75,164.08z"/>
		<path fill-rule="evenodd" clip-rule="evenodd" fill="#F39259" d="M259.973,151.475c3.072-1.944,6.492,3.668,4.022,7.295
			c-1.319,1.937-2.607,0.505-2.6-0.221c0.008-0.726,1.008-1.02,0.875-2.504c-0.133-1.485-0.863-0.595-1.788-1.753
			C259.558,153.133,259.973,151.475,259.973,151.475z"/>
		<path fill-rule="evenodd" clip-rule="evenodd" fill="#651D0D" d="M211.499,155.228c0,0,4.875,12.903,4.337,13.01
			c-0.538,0.108-4.803-7.599-4.803-7.599L211.499,155.228z"/>
		<path fill-rule="evenodd" clip-rule="evenodd" fill="#651D0D" d="M256.84,144.308c0,0,1.286,13.733,1.817,13.594
			c0.53-0.14,0.978-8.936,0.978-8.936L256.84,144.308z"/>
		<path fill-rule="evenodd" clip-rule="evenodd" fill="#3C1D0F" d="M230.137,329.743c3.011-3.728,12.616-36.129,12.616-36.129
			s7.885-0.717,24.803-7.024c6.297-2.349,11.343-5.114,15.255-7.712c-0.257-0.353-0.509-0.699-0.755-1.038
			c-11.559,6.169-38.215,10.247-48.673,7.913c-4.598,16.206-10.375,37.935-10.375,37.935l-30.827,34.878
			c0,0,0.052,0.254,0.152,0.672c0.203,0.846,0.604,2.36,1.178,3.802c1.804-1.592,4.216-3.726,6.946-6.148
			C211.642,346.966,228.167,332.182,230.137,329.743z"/>
		<path fill-rule="evenodd" clip-rule="evenodd" fill="#3C1D0F" d="M257.441,298.566c1.949-0.216,32.102,18.99,32.102,18.99
			s-16.372,37.841-16.574,39.77c-0.013,0.134-0.005,0.271,0.022,0.409c0.199,0.985,1.406,2.078,3.005,2.747l1.814-4.647
			l14.549-37.274l9.319-1.435l-6.309-4.444l-31.26-18.97L257.441,298.566z"/>
		<path fill-rule="evenodd" clip-rule="evenodd" fill="#FAAD79" d="M236.077,188c-8.442-0.599-15.577-5.987-20.142-14.133
			c-0.038,0.036-0.075,0.072-0.113,0.106c4.3,9.554,11.786,16.049,20.824,16.805c2.12,0.177,4.327,0.038,6.598-0.451
			c2.161-0.466,4.124-1.194,5.889-2.15c8.512-4.614,12.409-14.544,11.685-26.002c-0.067-0.02-0.135-0.041-0.202-0.064
			c-0.019,10.516-4.206,19.414-12.56,23.545c-1.662,0.822-3.487,1.455-5.478,1.875C240.343,188.002,238.17,188.148,236.077,188z"/>
		<path fill-rule="evenodd" clip-rule="evenodd" fill="#88181A" d="M248.861,170.75c0.237,0.439,0.443,0.904,0.612,1.392
			c1.649,4.759-0.77,9.895-5.402,11.469c-4.633,1.576-9.726-1.006-11.375-5.766c-0.169-0.487-0.295-0.979-0.38-1.471L248.861,170.75
			z"/>
		<path fill-rule="evenodd" clip-rule="evenodd" fill="#FFFFFF" d="M233.884,175.841l0.535,1.49
			c0.214,0.597,0.878,0.911,1.476,0.697l11.634-4.174c0.598-0.214,0.911-0.878,0.697-1.476l-0.452-1.259L233.884,175.841z"/>
	</g>
	<path fill-rule="evenodd" clip-rule="evenodd" fill="#E6E6E5" d="M385.346,405.554c-34.659,0-64.322,2.052-76.528,4.96
		c-12.209-2.908-41.871-4.96-76.531-4.96c-45.555,0-82.485,3.545-82.485,7.918s36.93,7.917,82.485,7.917
		c34.66,0,64.322-2.052,76.531-4.96c12.206,2.908,41.869,4.96,76.528,4.96c45.555,0,82.484-3.544,82.484-7.917
		S430.9,405.554,385.346,405.554z"/>
</g>
</svg>
